<svg xmlns="http://www.w3.org/2000/svg" xmlns:xlink="http://www.w3.org/1999/xlink" width="1200" zoomAndPan="magnify" viewBox="0 0 900 472.499986" height="630" preserveAspectRatio="xMidYMid meet" version="1.0"><defs><g/><clipPath id="49d4569d7f"><path d="M 0.476562 0 L 899.523438 0 L 899.523438 472 L 0.476562 472 Z M 0.476562 0 " clip-rule="nonzero"/></clipPath><clipPath id="e8f444f020"><path d="M 0.0703125 0.792969 L 455 0.792969 L 455 228.070312 L 0.0703125 228.070312 Z M 0.0703125 0.792969 " clip-rule="nonzero"/></clipPath><clipPath id="54bda4a258"><path d="M 0.0703125 159 L 45 159 L 45 210 L 0.0703125 210 Z M 0.0703125 159 " clip-rule="nonzero"/></clipPath><clipPath id="f502ac0488"><rect x="0" width="455" y="0" height="229"/></clipPath><clipPath id="800a329b40"><path d="M 231 100 L 740.167969 100 L 740.167969 216 L 231 216 Z M 231 100 " clip-rule="nonzero"/></clipPath><clipPath id="3137ec3cd6"><rect x="0" width="510" y="0" height="116"/></clipPath><clipPath id="8edb7cb078"><path d="M 444 0.792969 L 504 0.792969 L 504 90 L 444 90 Z M 444 0.792969 " clip-rule="nonzero"/></clipPath><clipPath id="0eb6bfbb41"><rect x="0" width="60" y="0" height="90"/></clipPath><clipPath id="3597474cb8"><rect x="0" width="741" y="0" height="229"/></clipPath></defs><g clip-path="url(#49d4569d7f)"><path fill="#ffffff" d="M 0.476562 0 L 899.523438 0 L 899.523438 472 L 0.476562 472 Z M 0.476562 0 " fill-opacity="1" fill-rule="nonzero"/><path fill="#2e97f2" d="M 0.476562 0 L 899.523438 0 L 899.523438 472 L 0.476562 472 Z M 0.476562 0 " fill-opacity="1" fill-rule="nonzero"/></g><g transform="matrix(1, 0, 0, 1, 80, 121)"><g clip-path="url(#3597474cb8)"><path fill="#c1ff72" d="M 411.132812 58.425781 C 417.894531 58.425781 424.65625 55.84375 429.769531 50.730469 C 440.050781 40.449219 440.050781 23.679688 429.769531 13.398438 C 419.488281 3.117188 402.71875 3.117188 392.4375 13.398438 C 382.15625 23.679688 382.15625 40.449219 392.4375 50.730469 C 397.605469 55.84375 404.371094 58.425781 411.132812 58.425781 Z M 394.800781 15.707031 C 399.3125 11.199219 405.195312 8.945312 411.132812 8.945312 C 417.070312 8.945312 422.953125 11.199219 427.460938 15.707031 C 436.476562 24.722656 436.476562 39.347656 427.460938 48.367188 C 418.445312 57.382812 403.820312 57.382812 394.800781 48.367188 C 385.785156 39.347656 385.785156 24.722656 394.800781 15.707031 Z M 394.800781 15.707031 " fill-opacity="1" fill-rule="nonzero"/><path fill="#c1ff72" d="M 416.628906 60.625 L 405.632812 60.625 C 405.082031 60.625 404.535156 60.902344 404.203125 61.394531 C 403.929688 61.890625 403.875 62.496094 404.148438 62.992188 L 409.648438 73.988281 C 409.921875 74.535156 410.472656 74.921875 411.132812 74.921875 C 411.738281 74.921875 412.339844 74.589844 412.617188 73.988281 L 418.113281 62.992188 C 418.390625 62.496094 418.335938 61.890625 418.058594 61.394531 C 417.730469 60.902344 417.179688 60.625 416.628906 60.625 Z M 416.628906 60.625 " fill-opacity="1" fill-rule="nonzero"/><path fill="#c1ff72" d="M 416.355469 22.6875 C 416.355469 22.980469 416.300781 23.261719 416.1875 23.53125 C 416.074219 23.800781 415.917969 24.039062 415.710938 24.246094 C 415.503906 24.449219 415.265625 24.609375 414.996094 24.722656 C 414.726562 24.832031 414.449219 24.886719 414.15625 24.886719 C 413.863281 24.886719 413.582031 24.832031 413.3125 24.722656 C 413.042969 24.609375 412.808594 24.449219 412.601562 24.246094 C 412.394531 24.039062 412.234375 23.800781 412.125 23.53125 C 412.011719 23.261719 411.957031 22.980469 411.957031 22.6875 C 411.957031 22.398438 412.011719 22.117188 412.125 21.847656 C 412.234375 21.578125 412.394531 21.339844 412.601562 21.132812 C 412.808594 20.929688 413.042969 20.769531 413.3125 20.65625 C 413.582031 20.546875 413.863281 20.488281 414.15625 20.488281 C 414.449219 20.488281 414.726562 20.546875 414.996094 20.65625 C 415.265625 20.769531 415.503906 20.929688 415.710938 21.132812 C 415.917969 21.339844 416.074219 21.578125 416.1875 21.847656 C 416.300781 22.117188 416.355469 22.398438 416.355469 22.6875 Z M 416.355469 22.6875 " fill-opacity="1" fill-rule="nonzero"/><path fill="#c1ff72" d="M 427.351562 22.6875 C 427.351562 22.980469 427.296875 23.261719 427.183594 23.53125 C 427.070312 23.800781 426.914062 24.039062 426.707031 24.246094 C 426.5 24.449219 426.261719 24.609375 425.992188 24.722656 C 425.722656 24.832031 425.445312 24.886719 425.152344 24.886719 C 424.859375 24.886719 424.578125 24.832031 424.308594 24.722656 C 424.039062 24.609375 423.804688 24.449219 423.597656 24.246094 C 423.390625 24.039062 423.230469 23.800781 423.121094 23.53125 C 423.007812 23.261719 422.953125 22.980469 422.953125 22.6875 C 422.953125 22.398438 423.007812 22.117188 423.121094 21.847656 C 423.230469 21.578125 423.390625 21.339844 423.597656 21.132812 C 423.804688 20.929688 424.039062 20.769531 424.308594 20.65625 C 424.578125 20.546875 424.859375 20.488281 425.152344 20.488281 C 425.445312 20.488281 425.722656 20.546875 425.992188 20.65625 C 426.261719 20.769531 426.5 20.929688 426.707031 21.132812 C 426.914062 21.339844 427.070312 21.578125 427.183594 21.847656 C 427.296875 22.117188 427.351562 22.398438 427.351562 22.6875 Z M 427.351562 22.6875 " fill-opacity="1" fill-rule="nonzero"/><path fill="#c1ff72" d="M 421.851562 30.9375 C 421.851562 31.226562 421.796875 31.507812 421.6875 31.777344 C 421.574219 32.046875 421.414062 32.285156 421.210938 32.492188 C 421.003906 32.699219 420.765625 32.855469 420.496094 32.96875 C 420.226562 33.078125 419.945312 33.136719 419.652344 33.136719 C 419.363281 33.136719 419.082031 33.078125 418.8125 32.96875 C 418.542969 32.855469 418.304688 32.699219 418.097656 32.492188 C 417.894531 32.285156 417.734375 32.046875 417.621094 31.777344 C 417.511719 31.507812 417.453125 31.226562 417.453125 30.9375 C 417.453125 30.644531 417.511719 30.363281 417.621094 30.09375 C 417.734375 29.824219 417.894531 29.585938 418.097656 29.382812 C 418.304688 29.175781 418.542969 29.015625 418.8125 28.90625 C 419.082031 28.792969 419.363281 28.738281 419.652344 28.738281 C 419.945312 28.738281 420.226562 28.792969 420.496094 28.90625 C 420.765625 29.015625 421.003906 29.175781 421.210938 29.382812 C 421.414062 29.585938 421.574219 29.824219 421.6875 30.09375 C 421.796875 30.363281 421.851562 30.644531 421.851562 30.9375 Z M 421.851562 30.9375 " fill-opacity="1" fill-rule="nonzero"/><g clip-path="url(#e8f444f020)"><g transform="matrix(1, 0, 0, 1, -0.000000000000014211, -0.000000000000028422)"><g clip-path="url(#f502ac0488)"><g fill="#ffffff" fill-opacity="1"><g transform="translate(0.20909, 71.165904)"><g><path d="M 30.15625 0.859375 C 25.007812 0.859375 20.351562 -0.253906 16.1875 -2.484375 C 12.03125 -4.722656 8.757812 -7.828125 6.375 -11.796875 C 4 -15.765625 2.8125 -20.25 2.8125 -25.25 C 2.8125 -30.25 4 -34.734375 6.375 -38.703125 C 8.757812 -42.671875 12.03125 -45.769531 16.1875 -48 C 20.351562 -50.238281 25.035156 -51.359375 30.234375 -51.359375 C 34.609375 -51.359375 38.5625 -50.585938 42.09375 -49.046875 C 45.625 -47.515625 48.59375 -45.304688 51 -42.421875 L 43.5 -35.5 C 40.082031 -39.4375 35.847656 -41.40625 30.796875 -41.40625 C 27.671875 -41.40625 24.878906 -40.71875 22.421875 -39.34375 C 19.972656 -37.976562 18.0625 -36.066406 16.6875 -33.609375 C 15.320312 -31.160156 14.640625 -28.375 14.640625 -25.25 C 14.640625 -22.125 15.320312 -19.332031 16.6875 -16.875 C 18.0625 -14.425781 19.972656 -12.515625 22.421875 -11.140625 C 24.878906 -9.773438 27.671875 -9.09375 30.796875 -9.09375 C 35.847656 -9.09375 40.082031 -11.085938 43.5 -15.078125 L 51 -8.15625 C 48.59375 -5.21875 45.609375 -2.976562 42.046875 -1.4375 C 38.492188 0.09375 34.53125 0.859375 30.15625 0.859375 Z M 30.15625 0.859375 "/></g></g></g><g fill="#ffffff" fill-opacity="1"><g transform="translate(56.04005, 71.165904)"><g><path d="M 52.296875 -50.5 L 52.296875 0 L 40.609375 0 L 40.609375 -20.703125 L 17.671875 -20.703125 L 17.671875 0 L 5.984375 0 L 5.984375 -50.5 L 17.671875 -50.5 L 17.671875 -30.59375 L 40.609375 -30.59375 L 40.609375 -50.5 Z M 52.296875 -50.5 "/></g></g></g><g fill="#ffffff" fill-opacity="1"><g transform="translate(117.280915, 71.165904)"><g><path d="M 28.421875 0.859375 C 21.210938 0.859375 15.597656 -1.132812 11.578125 -5.125 C 7.566406 -9.113281 5.5625 -14.8125 5.5625 -22.21875 L 5.5625 -50.5 L 17.234375 -50.5 L 17.234375 -22.65625 C 17.234375 -13.613281 20.988281 -9.09375 28.5 -9.09375 C 32.15625 -9.09375 34.941406 -10.1875 36.859375 -12.375 C 38.785156 -14.5625 39.75 -17.988281 39.75 -22.65625 L 39.75 -50.5 L 51.296875 -50.5 L 51.296875 -22.21875 C 51.296875 -14.8125 49.285156 -9.113281 45.265625 -5.125 C 41.253906 -1.132812 35.640625 0.859375 28.421875 0.859375 Z M 28.421875 0.859375 "/></g></g></g><g fill="#ffffff" fill-opacity="1"><g transform="translate(177.07914, 71.165904)"><g><path d="M 52.296875 -50.5 L 52.296875 0 L 42.703125 0 L 17.53125 -30.65625 L 17.53125 0 L 5.984375 0 L 5.984375 -50.5 L 15.65625 -50.5 L 40.765625 -19.84375 L 40.765625 -50.5 Z M 52.296875 -50.5 "/></g></g></g><g fill="#ffffff" fill-opacity="1"><g transform="translate(238.320006, 71.165904)"><g><path d="M 40.109375 -26.046875 L 50.78125 -26.046875 L 50.78125 -5.5625 C 48.039062 -3.488281 44.867188 -1.898438 41.265625 -0.796875 C 37.660156 0.304688 34.03125 0.859375 30.375 0.859375 C 25.132812 0.859375 20.421875 -0.253906 16.234375 -2.484375 C 12.046875 -4.722656 8.757812 -7.828125 6.375 -11.796875 C 4 -15.765625 2.8125 -20.25 2.8125 -25.25 C 2.8125 -30.25 4 -34.734375 6.375 -38.703125 C 8.757812 -42.671875 12.066406 -45.769531 16.296875 -48 C 20.535156 -50.238281 25.300781 -51.359375 30.59375 -51.359375 C 35.007812 -51.359375 39.019531 -50.613281 42.625 -49.125 C 46.238281 -47.632812 49.269531 -45.472656 51.71875 -42.640625 L 44.21875 -35.703125 C 40.613281 -39.503906 36.265625 -41.40625 31.171875 -41.40625 C 27.941406 -41.40625 25.078125 -40.734375 22.578125 -39.390625 C 20.078125 -38.046875 18.128906 -36.144531 16.734375 -33.6875 C 15.335938 -31.238281 14.640625 -28.425781 14.640625 -25.25 C 14.640625 -22.125 15.335938 -19.332031 16.734375 -16.875 C 18.128906 -14.425781 20.066406 -12.515625 22.546875 -11.140625 C 25.023438 -9.773438 27.847656 -9.09375 31.015625 -9.09375 C 34.390625 -9.09375 37.421875 -9.8125 40.109375 -11.25 Z M 40.109375 -26.046875 "/></g></g></g><g fill="#ffffff" fill-opacity="1"><g transform="translate(296.891984, 71.165904)"><g><path d="M 82.3125 -50.5 L 65.796875 0 L 53.234375 0 L 42.125 -34.1875 L 30.65625 0 L 18.171875 0 L 1.59375 -50.5 L 13.703125 -50.5 L 25.109375 -15 L 37.015625 -50.5 L 47.828125 -50.5 L 59.375 -14.71875 L 71.125 -50.5 Z M 82.3125 -50.5 "/></g></g></g><g fill="#ffffff" fill-opacity="1"><g transform="translate(383.741434, 71.165904)"><g/></g></g><g fill="#ffffff" fill-opacity="1"><g transform="translate(407.113014, 71.165904)"><g/></g></g><g fill="#ffffff" fill-opacity="1"><g transform="translate(430.484593, 71.165904)"><g/></g></g><g fill="#ffffff" fill-opacity="1"><g transform="translate(0.20909, 140.378)"><g><path d="M 40.109375 -26.046875 L 50.78125 -26.046875 L 50.78125 -5.5625 C 48.039062 -3.488281 44.867188 -1.898438 41.265625 -0.796875 C 37.660156 0.304688 34.03125 0.859375 30.375 0.859375 C 25.132812 0.859375 20.421875 -0.253906 16.234375 -2.484375 C 12.046875 -4.722656 8.757812 -7.828125 6.375 -11.796875 C 4 -15.765625 2.8125 -20.25 2.8125 -25.25 C 2.8125 -30.25 4 -34.734375 6.375 -38.703125 C 8.757812 -42.671875 12.066406 -45.769531 16.296875 -48 C 20.535156 -50.238281 25.300781 -51.359375 30.59375 -51.359375 C 35.007812 -51.359375 39.019531 -50.613281 42.625 -49.125 C 46.238281 -47.632812 49.269531 -45.472656 51.71875 -42.640625 L 44.21875 -35.703125 C 40.613281 -39.503906 36.265625 -41.40625 31.171875 -41.40625 C 27.941406 -41.40625 25.078125 -40.734375 22.578125 -39.390625 C 20.078125 -38.046875 18.128906 -36.144531 16.734375 -33.6875 C 15.335938 -31.238281 14.640625 -28.425781 14.640625 -25.25 C 14.640625 -22.125 15.335938 -19.332031 16.734375 -16.875 C 18.128906 -14.425781 20.066406 -12.515625 22.546875 -11.140625 C 25.023438 -9.773438 27.847656 -9.09375 31.015625 -9.09375 C 34.390625 -9.09375 37.421875 -9.8125 40.109375 -11.25 Z M 40.109375 -26.046875 "/></g></g></g><g fill="#ffffff" fill-opacity="1"><g transform="translate(58.781068, 140.378)"><g><path d="M 30.4375 0.859375 C 25.195312 0.859375 20.472656 -0.269531 16.265625 -2.53125 C 12.054688 -4.789062 8.757812 -7.898438 6.375 -11.859375 C 4 -15.828125 2.8125 -20.289062 2.8125 -25.25 C 2.8125 -30.207031 4 -34.664062 6.375 -38.625 C 8.757812 -42.59375 12.054688 -45.707031 16.265625 -47.96875 C 20.472656 -50.226562 25.195312 -51.359375 30.4375 -51.359375 C 35.6875 -51.359375 40.398438 -50.226562 44.578125 -47.96875 C 48.765625 -45.707031 52.0625 -42.59375 54.46875 -38.625 C 56.875 -34.664062 58.078125 -30.207031 58.078125 -25.25 C 58.078125 -20.289062 56.875 -15.828125 54.46875 -11.859375 C 52.0625 -7.898438 48.765625 -4.789062 44.578125 -2.53125 C 40.398438 -0.269531 35.6875 0.859375 30.4375 0.859375 Z M 30.4375 -9.09375 C 33.425781 -9.09375 36.117188 -9.773438 38.515625 -11.140625 C 40.921875 -12.515625 42.804688 -14.425781 44.171875 -16.875 C 45.546875 -19.332031 46.234375 -22.125 46.234375 -25.25 C 46.234375 -28.375 45.546875 -31.160156 44.171875 -33.609375 C 42.804688 -36.066406 40.921875 -37.976562 38.515625 -39.34375 C 36.117188 -40.71875 33.425781 -41.40625 30.4375 -41.40625 C 27.457031 -41.40625 24.765625 -40.71875 22.359375 -39.34375 C 19.953125 -37.976562 18.0625 -36.066406 16.6875 -33.609375 C 15.320312 -31.160156 14.640625 -28.375 14.640625 -25.25 C 14.640625 -22.125 15.320312 -19.332031 16.6875 -16.875 C 18.0625 -14.425781 19.953125 -12.515625 22.359375 -11.140625 C 24.765625 -9.773438 27.457031 -9.09375 30.4375 -9.09375 Z M 30.4375 -9.09375 "/></g></g></g><g fill="#ffffff" fill-opacity="1"><g transform="translate(122.618689, 140.378)"><g><path d="M 5.984375 -50.5 L 17.671875 -50.5 L 17.671875 -9.515625 L 43 -9.515625 L 43 0 L 5.984375 0 Z M 5.984375 -50.5 "/></g></g></g><g fill="#ffffff" fill-opacity="1"><g transform="translate(169.144628, 140.378)"><g><path d="M 17.671875 -41.125 L 17.671875 -27.78125 L 41.046875 -27.78125 L 41.046875 -18.390625 L 17.671875 -18.390625 L 17.671875 0 L 5.984375 0 L 5.984375 -50.5 L 44.15625 -50.5 L 44.15625 -41.125 Z M 17.671875 -41.125 "/></g></g></g><g clip-path="url(#54bda4a258)"><g fill="#ffffff" fill-opacity="1"><g transform="translate(0.20909, 209.590095)"><g><path d="M 16.453125 -40.96875 L 0.28125 -40.96875 L 0.28125 -50.5 L 44.296875 -50.5 L 44.296875 -40.96875 L 28.140625 -40.96875 L 28.140625 0 L 16.453125 0 Z M 16.453125 -40.96875 "/></g></g></g></g><g fill="#ffffff" fill-opacity="1"><g transform="translate(47.023465, 209.590095)"><g><path d="M 30.4375 0.859375 C 25.195312 0.859375 20.472656 -0.269531 16.265625 -2.53125 C 12.054688 -4.789062 8.757812 -7.898438 6.375 -11.859375 C 4 -15.828125 2.8125 -20.289062 2.8125 -25.25 C 2.8125 -30.207031 4 -34.664062 6.375 -38.625 C 8.757812 -42.59375 12.054688 -45.707031 16.265625 -47.96875 C 20.472656 -50.226562 25.195312 -51.359375 30.4375 -51.359375 C 35.6875 -51.359375 40.398438 -50.226562 44.578125 -47.96875 C 48.765625 -45.707031 52.0625 -42.59375 54.46875 -38.625 C 56.875 -34.664062 58.078125 -30.207031 58.078125 -25.25 C 58.078125 -20.289062 56.875 -15.828125 54.46875 -11.859375 C 52.0625 -7.898438 48.765625 -4.789062 44.578125 -2.53125 C 40.398438 -0.269531 35.6875 0.859375 30.4375 0.859375 Z M 30.4375 -9.09375 C 33.425781 -9.09375 36.117188 -9.773438 38.515625 -11.140625 C 40.921875 -12.515625 42.804688 -14.425781 44.171875 -16.875 C 45.546875 -19.332031 46.234375 -22.125 46.234375 -25.25 C 46.234375 -28.375 45.546875 -31.160156 44.171875 -33.609375 C 42.804688 -36.066406 40.921875 -37.976562 38.515625 -39.34375 C 36.117188 -40.71875 33.425781 -41.40625 30.4375 -41.40625 C 27.457031 -41.40625 24.765625 -40.71875 22.359375 -39.34375 C 19.953125 -37.976562 18.0625 -36.066406 16.6875 -33.609375 C 15.320312 -31.160156 14.640625 -28.375 14.640625 -25.25 C 14.640625 -22.125 15.320312 -19.332031 16.6875 -16.875 C 18.0625 -14.425781 19.953125 -12.515625 22.359375 -11.140625 C 24.765625 -9.773438 27.457031 -9.09375 30.4375 -9.09375 Z M 30.4375 -9.09375 "/></g></g></g><g fill="#ffffff" fill-opacity="1"><g transform="translate(110.861086, 209.590095)"><g><path d="M 28.421875 0.859375 C 21.210938 0.859375 15.597656 -1.132812 11.578125 -5.125 C 7.566406 -9.113281 5.5625 -14.8125 5.5625 -22.21875 L 5.5625 -50.5 L 17.234375 -50.5 L 17.234375 -22.65625 C 17.234375 -13.613281 20.988281 -9.09375 28.5 -9.09375 C 32.15625 -9.09375 34.941406 -10.1875 36.859375 -12.375 C 38.785156 -14.5625 39.75 -17.988281 39.75 -22.65625 L 39.75 -50.5 L 51.296875 -50.5 L 51.296875 -22.21875 C 51.296875 -14.8125 49.285156 -9.113281 45.265625 -5.125 C 41.253906 -1.132812 35.640625 0.859375 28.421875 0.859375 Z M 28.421875 0.859375 "/></g></g></g><g fill="#ffffff" fill-opacity="1"><g transform="translate(170.659311, 209.590095)"><g><path d="M 38.15625 0 L 28.421875 -14.0625 L 17.671875 -14.0625 L 17.671875 0 L 5.984375 0 L 5.984375 -50.5 L 27.84375 -50.5 C 32.320312 -50.5 36.207031 -49.753906 39.5 -48.265625 C 42.789062 -46.773438 45.328125 -44.65625 47.109375 -41.90625 C 48.890625 -39.164062 49.78125 -35.921875 49.78125 -32.171875 C 49.78125 -28.421875 48.875 -25.1875 47.0625 -22.46875 C 45.257812 -19.75 42.703125 -17.671875 39.390625 -16.234375 L 50.71875 0 Z M 37.953125 -32.171875 C 37.953125 -35.015625 37.035156 -37.191406 35.203125 -38.703125 C 33.378906 -40.210938 30.710938 -40.96875 27.203125 -40.96875 L 17.671875 -40.96875 L 17.671875 -23.375 L 27.203125 -23.375 C 30.710938 -23.375 33.378906 -24.140625 35.203125 -25.671875 C 37.035156 -27.210938 37.953125 -29.378906 37.953125 -32.171875 Z M 37.953125 -32.171875 "/></g></g></g></g></g></g><g clip-path="url(#800a329b40)"><g transform="matrix(1, 0, 0, 1, 231, 100)"><g clip-path="url(#3137ec3cd6)"><g fill="#ffffff" fill-opacity="1"><g transform="translate(0.442433, 89.136384)"><g><path d="M 34.859375 -37.375 C 31.722656 -33.394531 27.742188 -30.375 22.921875 -28.3125 C 18.109375 -26.257812 12.976562 -24.914062 7.53125 -24.28125 C 6.414062 -24.144531 5.507812 -24.390625 4.8125 -25.015625 C 4.113281 -25.648438 3.765625 -26.453125 3.765625 -27.421875 L 3.765625 -38.625 C 3.765625 -39.257812 4.007812 -39.890625 4.5 -40.515625 C 4.988281 -41.140625 5.582031 -41.523438 6.28125 -41.671875 C 11.582031 -42.992188 15.4375 -45.207031 17.84375 -48.3125 C 20.25 -51.414062 21.800781 -55.445312 22.5 -60.40625 L 7.640625 -60.40625 C 6.660156 -60.40625 5.859375 -60.703125 5.234375 -61.296875 C 4.609375 -61.890625 4.296875 -62.640625 4.296875 -63.546875 L 4.296875 -73.390625 C 4.296875 -74.296875 4.609375 -75.046875 5.234375 -75.640625 C 5.859375 -76.234375 6.660156 -76.53125 7.640625 -76.53125 L 23.03125 -76.53125 L 23.03125 -82.171875 C 23.03125 -83.085938 23.359375 -83.835938 24.015625 -84.421875 C 24.679688 -85.015625 25.503906 -85.3125 26.484375 -85.3125 L 42.921875 -85.3125 C 43.828125 -85.3125 44.609375 -85.015625 45.265625 -84.421875 C 45.929688 -83.835938 46.265625 -83.085938 46.265625 -82.171875 L 46.265625 -76.53125 L 60.828125 -76.53125 C 61.796875 -76.53125 62.59375 -76.234375 63.21875 -75.640625 C 63.851562 -75.046875 64.171875 -74.296875 64.171875 -73.390625 L 64.171875 -63.546875 C 64.171875 -62.640625 63.851562 -61.890625 63.21875 -61.296875 C 62.59375 -60.703125 61.796875 -60.40625 60.828125 -60.40625 L 46.6875 -60.40625 C 47.175781 -55.726562 48.535156 -51.785156 50.765625 -48.578125 C 53.003906 -45.367188 56.8125 -43.066406 62.1875 -41.671875 C 62.8125 -41.523438 63.382812 -41.140625 63.90625 -40.515625 C 64.4375 -39.890625 64.703125 -39.257812 64.703125 -38.625 L 64.703125 -27.421875 C 64.703125 -26.453125 64.351562 -25.648438 63.65625 -25.015625 C 62.957031 -24.390625 62.082031 -24.144531 61.03125 -24.28125 C 57.820312 -24.707031 54.554688 -25.425781 51.234375 -26.4375 C 47.921875 -27.445312 44.832031 -28.84375 41.96875 -30.625 C 39.113281 -32.40625 36.742188 -34.65625 34.859375 -37.375 Z M 56.734375 -46.578125 L 56.734375 -55.375 C 56.734375 -56.28125 57.066406 -57.03125 57.734375 -57.625 C 58.398438 -58.21875 59.21875 -58.515625 60.1875 -58.515625 C 61.800781 -58.515625 63.410156 -58.671875 65.015625 -58.984375 C 66.617188 -59.304688 68.289062 -59.675781 70.03125 -60.09375 L 70.03125 -75.796875 C 70.03125 -76.703125 70.34375 -77.453125 70.96875 -78.046875 C 71.601562 -78.640625 72.410156 -78.9375 73.390625 -78.9375 L 89.40625 -78.9375 C 90.382812 -78.9375 91.1875 -78.640625 91.8125 -78.046875 C 92.4375 -77.453125 92.75 -76.703125 92.75 -75.796875 L 92.75 -27.21875 C 92.75 -26.3125 92.4375 -25.5625 91.8125 -24.96875 C 91.1875 -24.375 90.382812 -24.078125 89.40625 -24.078125 L 73.390625 -24.078125 C 72.410156 -24.078125 71.601562 -24.375 70.96875 -24.96875 C 70.34375 -25.5625 70.03125 -26.3125 70.03125 -27.21875 L 70.03125 -44.703125 C 68.632812 -44.347656 67.253906 -44.082031 65.890625 -43.90625 C 64.535156 -43.738281 62.632812 -43.582031 60.1875 -43.4375 C 59.21875 -43.4375 58.398438 -43.734375 57.734375 -44.328125 C 57.066406 -44.921875 56.734375 -45.671875 56.734375 -46.578125 Z M 70.984375 -1.890625 L 70.984375 -2.203125 C 70.984375 -3.242188 70.648438 -4.078125 69.984375 -4.703125 C 69.316406 -5.335938 67.796875 -5.65625 65.421875 -5.65625 L 37.375 -5.65625 C 35.070312 -5.65625 33.570312 -5.335938 32.875 -4.703125 C 32.175781 -4.078125 31.828125 -3.242188 31.828125 -2.203125 C 31.828125 -1.015625 32.175781 -0.109375 32.875 0.515625 C 33.570312 1.148438 35.070312 1.46875 37.375 1.46875 L 65.421875 1.46875 C 67.796875 1.46875 69.316406 1.171875 69.984375 0.578125 C 70.648438 -0.015625 70.984375 -0.835938 70.984375 -1.890625 Z M 93.90625 -6.796875 L 93.90625 2.9375 C 93.90625 7.539062 92.125 11.132812 88.5625 13.71875 C 85 16.300781 80.566406 17.59375 75.265625 17.59375 L 27.53125 17.59375 C 24.457031 17.59375 21.523438 17.03125 18.734375 15.90625 C 15.941406 14.789062 13.640625 13.148438 11.828125 10.984375 C 10.015625 8.828125 9.070312 6.144531 9 2.9375 L 9 -6.796875 C 9 -9.941406 9.816406 -12.578125 11.453125 -14.703125 C 13.097656 -16.835938 15.332031 -18.460938 18.15625 -19.578125 C 20.988281 -20.691406 24.113281 -21.25 27.53125 -21.25 L 75.265625 -21.25 C 80.566406 -21.25 85 -20.007812 88.5625 -17.53125 C 92.125 -15.050781 93.90625 -11.472656 93.90625 -6.796875 Z M 93.90625 -6.796875 "/></g></g></g><g fill="#ffffff" fill-opacity="1"><g transform="translate(101.880531, 89.136384)"><g><path d="M 32.453125 -55.171875 L 38.625 -55.171875 C 40.789062 -55.171875 42.203125 -55.535156 42.859375 -56.265625 C 43.523438 -57.003906 43.859375 -57.894531 43.859375 -58.9375 L 43.859375 -61.875 C 43.859375 -62.914062 43.523438 -63.800781 42.859375 -64.53125 C 42.203125 -65.269531 40.789062 -65.640625 38.625 -65.640625 L 32.453125 -65.640625 C 30.285156 -65.640625 28.867188 -65.269531 28.203125 -64.53125 C 27.546875 -63.800781 27.21875 -62.914062 27.21875 -61.875 L 27.21875 -58.9375 C 27.21875 -57.894531 27.546875 -57.003906 28.203125 -56.265625 C 28.867188 -55.535156 30.285156 -55.171875 32.453125 -55.171875 Z M 46.375 -39.890625 L 24.703125 -39.890625 C 17.929688 -39.890625 12.957031 -41.316406 9.78125 -44.171875 C 6.613281 -47.035156 5.03125 -50.5625 5.03125 -54.75 L 5.03125 -65.84375 C 5.03125 -70.175781 6.613281 -73.738281 9.78125 -76.53125 C 12.957031 -79.320312 17.929688 -80.71875 24.703125 -80.71875 L 46.375 -80.71875 C 53.144531 -80.71875 58.117188 -79.320312 61.296875 -76.53125 C 64.472656 -73.738281 66.0625 -70.175781 66.0625 -65.84375 L 66.0625 -54.75 C 66.0625 -50.5625 64.472656 -47.035156 61.296875 -44.171875 C 58.117188 -41.316406 53.144531 -39.890625 46.375 -39.890625 Z M 70.984375 -9.53125 L 70.984375 -10.78125 L 52.859375 -10.78125 C 51.890625 -10.78125 51.085938 -11.078125 50.453125 -11.671875 C 49.828125 -12.265625 49.515625 -13.015625 49.515625 -13.921875 L 49.515625 -19.6875 C 49.515625 -20.59375 49.828125 -21.34375 50.453125 -21.9375 C 51.085938 -22.53125 51.890625 -22.828125 52.859375 -22.828125 L 70.984375 -22.828125 L 70.984375 -76 C 70.984375 -76.90625 71.3125 -77.65625 71.96875 -78.25 C 72.632812 -78.84375 73.421875 -79.140625 74.328125 -79.140625 L 90.234375 -79.140625 C 91.210938 -79.140625 92.03125 -78.84375 92.6875 -78.25 C 93.351562 -77.65625 93.6875 -76.90625 93.6875 -76 L 93.6875 -9.53125 C 93.6875 -8.625 93.351562 -7.875 92.6875 -7.28125 C 92.03125 -6.6875 91.210938 -6.390625 90.234375 -6.390625 L 74.328125 -6.390625 C 73.421875 -6.390625 72.632812 -6.6875 71.96875 -7.28125 C 71.3125 -7.875 70.984375 -8.625 70.984375 -9.53125 Z M 41.03125 -12.875 L 25.015625 -12.875 C 24.035156 -12.875 23.234375 -13.171875 22.609375 -13.765625 C 21.984375 -14.359375 21.671875 -15.109375 21.671875 -16.015625 L 21.671875 -24.8125 L 6.171875 -24.8125 C 5.191406 -24.8125 4.390625 -25.109375 3.765625 -25.703125 C 3.140625 -26.296875 2.828125 -27.046875 2.828125 -27.953125 L 2.828125 -34.4375 C 2.828125 -35.34375 3.140625 -36.09375 3.765625 -36.6875 C 4.390625 -37.28125 5.191406 -37.578125 6.171875 -37.578125 L 47.3125 -37.578125 C 49.550781 -37.578125 52.222656 -37.613281 55.328125 -37.6875 C 58.429688 -37.757812 61.691406 -37.96875 65.109375 -38.3125 C 66.160156 -38.457031 67.035156 -38.210938 67.734375 -37.578125 C 68.429688 -36.953125 68.78125 -36.148438 68.78125 -35.171875 L 68.78125 -28.78125 C 68.78125 -28.019531 68.484375 -27.34375 67.890625 -26.75 C 67.296875 -26.15625 66.582031 -25.785156 65.75 -25.640625 C 62.53125 -25.296875 59.210938 -25.070312 55.796875 -24.96875 C 52.378906 -24.863281 49.445312 -24.8125 47 -24.8125 L 44.390625 -24.8125 L 44.390625 -16.015625 C 44.390625 -15.109375 44.054688 -14.359375 43.390625 -13.765625 C 42.722656 -13.171875 41.9375 -12.875 41.03125 -12.875 Z M 72.859375 17.265625 L 15.8125 17.265625 C 14.832031 17.265625 14.023438 16.96875 13.390625 16.375 C 12.765625 15.789062 12.453125 15.039062 12.453125 14.125 L 12.453125 -7.53125 C 12.453125 -8.4375 12.765625 -9.1875 13.390625 -9.78125 C 14.023438 -10.375 14.832031 -10.671875 15.8125 -10.671875 L 31.828125 -10.671875 C 32.804688 -10.671875 33.609375 -10.375 34.234375 -9.78125 C 34.859375 -9.1875 35.171875 -8.4375 35.171875 -7.53125 L 35.171875 1.15625 L 73.703125 1.15625 C 76.210938 1.15625 78.945312 1.03125 81.90625 0.78125 C 84.875 0.539062 87.617188 0.175781 90.140625 -0.3125 C 91.253906 -0.519531 92.210938 -0.328125 93.015625 0.265625 C 93.816406 0.859375 94.21875 1.675781 94.21875 2.71875 L 94.21875 12.765625 C 94.21875 13.460938 93.9375 14.125 93.375 14.75 C 92.820312 15.382812 92.160156 15.769531 91.390625 15.90625 C 88.523438 16.46875 85.554688 16.816406 82.484375 16.953125 C 79.421875 17.097656 76.210938 17.203125 72.859375 17.265625 Z M 72.859375 17.265625 "/></g></g></g><g fill="#ffffff" fill-opacity="1"><g transform="translate(203.318628, 89.136384)"><g><path d="M 8.0625 0.515625 L 8.0625 -62.703125 C 8.0625 -67.734375 9.59375 -71.726562 12.65625 -74.6875 C 15.726562 -77.65625 19.882812 -79.140625 25.125 -79.140625 L 46.265625 -79.140625 C 51.503906 -79.140625 55.65625 -77.65625 58.71875 -74.6875 C 61.789062 -71.726562 63.328125 -67.734375 63.328125 -62.703125 L 63.328125 -60.1875 C 64.453125 -60.332031 65.601562 -60.523438 66.78125 -60.765625 C 67.96875 -61.015625 69.191406 -61.3125 70.453125 -61.65625 L 70.453125 -75.6875 C 70.453125 -76.59375 70.765625 -77.34375 71.390625 -77.9375 C 72.023438 -78.53125 72.828125 -78.828125 73.796875 -78.828125 L 89.71875 -78.828125 C 90.695312 -78.828125 91.5 -78.53125 92.125 -77.9375 C 92.75 -77.34375 93.0625 -76.59375 93.0625 -75.6875 L 93.0625 14.125 C 93.0625 15.039062 92.75 15.789062 92.125 16.375 C 91.5 16.96875 90.695312 17.265625 89.71875 17.265625 L 73.796875 17.265625 C 72.828125 17.265625 72.023438 16.96875 71.390625 16.375 C 70.765625 15.789062 70.453125 15.039062 70.453125 14.125 L 70.453125 -3.984375 C 68.429688 -3.285156 66.054688 -2.828125 63.328125 -2.609375 L 63.328125 0.515625 C 63.328125 5.398438 61.789062 9.359375 58.71875 12.390625 C 55.65625 15.429688 51.503906 16.953125 46.265625 16.953125 L 25.125 16.953125 C 19.882812 16.953125 15.726562 15.429688 12.65625 12.390625 C 9.59375 9.359375 8.0625 5.398438 8.0625 0.515625 Z M 30.78125 -57.578125 L 30.78125 -4.609375 C 30.78125 -2.441406 31.160156 -1.023438 31.921875 -0.359375 C 32.691406 0.296875 33.671875 0.625 34.859375 0.625 L 36.53125 0.625 C 37.71875 0.625 38.675781 0.296875 39.40625 -0.359375 C 40.144531 -1.023438 40.515625 -2.441406 40.515625 -4.609375 L 40.515625 -57.578125 C 40.515625 -59.804688 40.144531 -61.234375 39.40625 -61.859375 C 38.675781 -62.492188 37.71875 -62.8125 36.53125 -62.8125 L 34.859375 -62.8125 C 33.671875 -62.8125 32.691406 -62.492188 31.921875 -61.859375 C 31.160156 -61.234375 30.78125 -59.804688 30.78125 -57.578125 Z M 70.453125 -21.453125 L 70.453125 -44.171875 C 68.429688 -43.472656 66.054688 -43.019531 63.328125 -42.8125 L 63.328125 -20 C 64.453125 -20.132812 65.601562 -20.320312 66.78125 -20.5625 C 67.96875 -20.8125 69.191406 -21.109375 70.453125 -21.453125 Z M 70.453125 -21.453125 "/></g></g></g><g fill="#ffffff" fill-opacity="1"><g transform="translate(304.756725, 89.136384)"><g><path d="M 97.5625 -6.796875 L 97.5625 2.9375 C 97.5625 7.539062 95.800781 11.132812 92.28125 13.71875 C 88.757812 16.300781 84.3125 17.59375 78.9375 17.59375 L 29.734375 17.59375 C 24.566406 17.59375 20.132812 16.300781 16.4375 13.71875 C 12.875 11.132812 11.09375 7.539062 11.09375 2.9375 L 11.09375 -6.796875 C 11.09375 -9.941406 11.929688 -12.578125 13.609375 -14.703125 C 15.285156 -16.835938 17.519531 -18.460938 20.3125 -19.578125 C 23.101562 -20.691406 26.242188 -21.25 29.734375 -21.25 L 78.9375 -21.25 C 84.3125 -21.25 88.757812 -20.007812 92.28125 -17.53125 C 95.800781 -15.050781 97.5625 -11.472656 97.5625 -6.796875 Z M 51.8125 -26.171875 L 51.8125 -75.6875 C 51.8125 -76.59375 52.144531 -77.34375 52.8125 -77.9375 C 53.476562 -78.53125 54.300781 -78.828125 55.28125 -78.828125 L 69.203125 -78.828125 C 70.171875 -78.828125 70.96875 -78.53125 71.59375 -77.9375 C 72.226562 -77.34375 72.546875 -76.59375 72.546875 -75.6875 L 72.546875 -61.34375 L 75.578125 -62.28125 L 75.578125 -75.6875 C 75.578125 -76.59375 75.910156 -77.34375 76.578125 -77.9375 C 77.242188 -78.53125 78.03125 -78.828125 78.9375 -78.828125 L 92.96875 -78.828125 C 93.9375 -78.828125 94.734375 -78.53125 95.359375 -77.9375 C 95.992188 -77.34375 96.3125 -76.59375 96.3125 -75.6875 L 96.3125 -26.171875 C 96.3125 -25.265625 95.992188 -24.515625 95.359375 -23.921875 C 94.734375 -23.328125 93.9375 -23.03125 92.96875 -23.03125 L 78.9375 -23.03125 C 78.03125 -23.03125 77.242188 -23.328125 76.578125 -23.921875 C 75.910156 -24.515625 75.578125 -25.265625 75.578125 -26.171875 L 75.578125 -44.703125 L 72.546875 -43.765625 L 72.546875 -26.171875 C 72.546875 -25.265625 72.226562 -24.515625 71.59375 -23.921875 C 70.96875 -23.328125 70.171875 -23.03125 69.203125 -23.03125 L 55.28125 -23.03125 C 54.300781 -23.03125 53.476562 -23.328125 52.8125 -23.921875 C 52.144531 -24.515625 51.8125 -25.265625 51.8125 -26.171875 Z M 49.71875 -46.6875 L 49.71875 -36.4375 C 49.71875 -32.382812 48.390625 -29.171875 45.734375 -26.796875 C 43.085938 -24.421875 39.53125 -23.234375 35.0625 -23.234375 L 16.953125 -23.234375 C 12.421875 -23.234375 8.828125 -24.421875 6.171875 -26.796875 C 3.523438 -29.171875 2.203125 -32.382812 2.203125 -36.4375 L 2.203125 -46.6875 C 2.203125 -50.738281 3.523438 -53.945312 6.171875 -56.3125 C 8.828125 -58.6875 12.421875 -59.875 16.953125 -59.875 L 35.0625 -59.875 C 39.53125 -59.875 43.085938 -58.6875 45.734375 -56.3125 C 48.390625 -53.945312 49.71875 -50.738281 49.71875 -46.6875 Z M 46.6875 -61.765625 L 4.296875 -61.765625 C 3.316406 -61.765625 2.507812 -62.0625 1.875 -62.65625 C 1.25 -63.25 0.9375 -64 0.9375 -64.90625 L 0.9375 -74.4375 C 0.9375 -75.34375 1.25 -76.09375 1.875 -76.6875 C 2.507812 -77.28125 3.316406 -77.578125 4.296875 -77.578125 L 15.078125 -77.578125 L 15.078125 -81.34375 C 15.078125 -82.25 15.40625 -83 16.0625 -83.59375 C 16.726562 -84.1875 17.550781 -84.484375 18.53125 -84.484375 L 32.25 -84.484375 C 33.21875 -84.484375 34.015625 -84.1875 34.640625 -83.59375 C 35.273438 -83 35.59375 -82.25 35.59375 -81.34375 L 35.59375 -77.578125 L 46.6875 -77.578125 C 47.664062 -77.578125 48.46875 -77.28125 49.09375 -76.6875 C 49.726562 -76.09375 50.046875 -75.34375 50.046875 -74.4375 L 50.046875 -64.90625 C 50.046875 -64 49.726562 -63.25 49.09375 -62.65625 C 48.46875 -62.0625 47.664062 -61.765625 46.6875 -61.765625 Z M 74.75 -1.890625 L 74.75 -2.203125 C 74.75 -3.242188 74.414062 -4.078125 73.75 -4.703125 C 73.082031 -5.335938 71.53125 -5.65625 69.09375 -5.65625 L 39.78125 -5.65625 C 37.476562 -5.65625 35.925781 -5.335938 35.125 -4.703125 C 34.320312 -4.078125 33.921875 -3.242188 33.921875 -2.203125 C 33.921875 -1.015625 34.320312 -0.109375 35.125 0.515625 C 35.925781 1.148438 37.476562 1.46875 39.78125 1.46875 L 69.09375 1.46875 C 71.53125 1.46875 73.082031 1.171875 73.75 0.578125 C 74.414062 -0.015625 74.75 -0.835938 74.75 -1.890625 Z M 29.421875 -41.5625 C 29.421875 -42.332031 29.207031 -42.875 28.78125 -43.1875 C 28.363281 -43.5 27.457031 -43.65625 26.0625 -43.65625 L 25.640625 -43.65625 C 24.242188 -43.65625 23.335938 -43.5 22.921875 -43.1875 C 22.503906 -42.875 22.296875 -42.332031 22.296875 -41.5625 C 22.296875 -40.863281 22.503906 -40.335938 22.921875 -39.984375 C 23.335938 -39.640625 24.242188 -39.46875 25.640625 -39.46875 L 26.0625 -39.46875 C 27.457031 -39.46875 28.363281 -39.640625 28.78125 -39.984375 C 29.207031 -40.335938 29.421875 -40.863281 29.421875 -41.5625 Z M 29.421875 -41.5625 "/></g></g></g><g fill="#ffffff" fill-opacity="1"><g transform="translate(406.194823, 89.136384)"><g><path d="M 32.875 1.046875 C 30.082031 5.160156 26.257812 8.613281 21.40625 11.40625 C 16.550781 14.195312 11.367188 15.976562 5.859375 16.75 C 4.742188 16.882812 3.816406 16.640625 3.078125 16.015625 C 2.347656 15.390625 1.984375 14.585938 1.984375 13.609375 L 1.984375 2.296875 C 1.984375 1.671875 2.226562 1.0625 2.71875 0.46875 C 3.207031 -0.125 3.800781 -0.523438 4.5 -0.734375 C 7.707031 -1.640625 10.359375 -3.117188 12.453125 -5.171875 C 14.546875 -7.234375 16.203125 -9.660156 17.421875 -12.453125 C 18.648438 -15.242188 19.523438 -18.175781 20.046875 -21.25 C 20.566406 -24.320312 20.828125 -27.289062 20.828125 -30.15625 L 20.828125 -75.578125 C 20.828125 -76.484375 21.140625 -77.234375 21.765625 -77.828125 C 22.398438 -78.421875 23.207031 -78.71875 24.1875 -78.71875 L 40.9375 -78.71875 C 41.84375 -78.71875 42.625 -78.421875 43.28125 -77.828125 C 43.945312 -77.234375 44.28125 -76.484375 44.28125 -75.578125 L 44.28125 -30.15625 C 44.28125 -27.570312 44.472656 -24.757812 44.859375 -21.71875 C 45.242188 -18.6875 45.992188 -15.738281 47.109375 -12.875 C 48.222656 -10.007812 49.804688 -7.492188 51.859375 -5.328125 C 53.921875 -3.171875 56.664062 -1.640625 60.09375 -0.734375 C 60.644531 -0.585938 61.179688 -0.203125 61.703125 0.421875 C 62.234375 1.046875 62.5 1.671875 62.5 2.296875 L 62.5 13.5 C 62.5 14.550781 62.113281 15.390625 61.34375 16.015625 C 60.570312 16.640625 59.664062 16.847656 58.625 16.640625 C 53.601562 15.734375 48.734375 13.988281 44.015625 11.40625 C 39.304688 8.820312 35.59375 5.367188 32.875 1.046875 Z M 87.828125 -75.6875 L 87.828125 -44.484375 C 89.859375 -44.554688 91.707031 -44.679688 93.375 -44.859375 C 95.050781 -45.035156 96.585938 -45.296875 97.984375 -45.640625 C 99.097656 -45.921875 100.070312 -45.742188 100.90625 -45.109375 C 101.75 -44.484375 102.171875 -43.648438 102.171875 -42.609375 L 102.171875 -30.78125 C 102.171875 -30.144531 101.925781 -29.515625 101.4375 -28.890625 C 100.945312 -28.265625 100.390625 -27.878906 99.765625 -27.734375 C 98.503906 -27.390625 96.863281 -27.09375 94.84375 -26.84375 C 92.820312 -26.601562 90.484375 -26.445312 87.828125 -26.375 L 87.828125 14.234375 C 87.828125 15.140625 87.492188 15.890625 86.828125 16.484375 C 86.171875 17.078125 85.390625 17.375 84.484375 17.375 L 68.46875 17.375 C 67.488281 17.375 66.679688 17.078125 66.046875 16.484375 C 65.421875 15.890625 65.109375 15.140625 65.109375 14.234375 L 65.109375 -75.6875 C 65.109375 -76.59375 65.421875 -77.34375 66.046875 -77.9375 C 66.679688 -78.53125 67.488281 -78.828125 68.46875 -78.828125 L 84.484375 -78.828125 C 85.390625 -78.828125 86.171875 -78.53125 86.828125 -77.9375 C 87.492188 -77.34375 87.828125 -76.59375 87.828125 -75.6875 Z M 87.828125 -75.6875 "/></g></g></g></g></g></g><g clip-path="url(#8edb7cb078)"><g transform="matrix(1, 0, 0, 1, 444, -0.000000000000028422)"><g clip-path="url(#0eb6bfbb41)"><g fill="#ffffff" fill-opacity="1"><g transform="translate(0.843433, 71.165904)"><g><path d="M 52.296875 -50.5 L 52.296875 0 L 42.703125 0 L 17.53125 -30.65625 L 17.53125 0 L 5.984375 0 L 5.984375 -50.5 L 15.65625 -50.5 L 40.765625 -19.84375 L 40.765625 -50.5 Z M 52.296875 -50.5 "/></g></g></g></g></g></g></g></g></svg>